<?xml version="1.0" encoding="utf-8"?>
<!-- Generator: Adobe Illustrator 26.2.1, SVG Export Plug-In . SVG Version: 6.00 Build 0)  -->
<svg version="1.1" id="a" xmlns="http://www.w3.org/2000/svg" xmlns:xlink="http://www.w3.org/1999/xlink" x="0px" y="0px"
	 viewBox="0 0 554.7 267.1" style="enable-background:new 0 0 554.7 267.1;" xml:space="preserve">
<style type="text/css">
	.st0{fill:#1868AE;}
</style>
<g>
	<path class="st0" d="M180.1,213.9c0-6,4.5-11.5,11.1-11.5c4.7,0,9.3,2.9,8.6,8.7c-3.5,1.2-5.6,4.4-5.6,7.9c0,3.8,2.5,6.3,11.1,6.3
		c5.5,0,18.3-1.2,18.3-9.1c0-11.8-37.3-11.2-37.3-31.3c0-16.5,18.4-22.9,33.3-22.9c9.9,0,22.6,2.3,22.6,11.4
		c0,5.4-4.1,10.3-9.9,10.3c-4.1,0-7.9-2.8-7.3-8c2.6-1,4.9-3.5,4.9-6.4c0-4.1-4.7-6.1-11.7-6.1c-5.4,0-13.5,2.3-13.5,9.2
		c0,11.9,36.7,9.6,36.7,29.6c0,17.3-20.7,24.5-36.8,24.5C193.8,226.4,180.1,224.2,180.1,213.9L180.1,213.9z"/>
	<path class="st0" d="M295,170.7c0-4.7-2.9-7.8-6.9-7.8c-9.2,0-15.8,14.5-16.5,26.5c-0.7,12.7,3.8,23.8,17.1,23.8
		c5.5,0,12.8-1.9,18.4-8.5l0.7,0.4c-7.5,12.4-20.2,21.3-34,21.3s-24.7-9.6-24.7-25.6c0-20.4,17.4-38.8,40.2-38.8
		c9.3,0,22.9,2.3,22.9,13.4c0,8.8-10.3,20.4-39.7,12.7l0.1-0.5C288.7,188.4,295,179.2,295,170.7L295,170.7z"/>
	<path class="st0" d="M318.1,208.9l6.2-38.7c0.4-2.4-1.5-4.2-4.9-3.1l-0.4-0.4c4.2-2,12.5-4.7,18.3-4.7c6.8,0,9.2,2.5,7.9,10.6
		l-5.5,34.7c-1.5,10.2-1.5,13,2.1,13c6.5,0,20.3-15.8,31.6-35.2c5.5-9.4,10.3-19.7,13.4-29.5c2.5-7.8,3.8-11.2,4.7-16.6
		c0.3-2,2.6-3.6,1.8,0.2c-3,13.7-8.6,28.8-15.8,42.2c-13.2,24.6-32.1,45-45.5,45C321.2,226.4,316.2,220.7,318.1,208.9L318.1,208.9z"
		/>
	<path class="st0" d="M393.2,139.3h-0.1c-3.7,8.7-12.2,14.8-22,14.8c-11.4,0-22.3-4.1-34.6-4.1c-5.3,0-10.6,1.3-12.5,7.1l-0.8-0.1
		c4.4-14,10.9-29.9,26.3-29.9c12.7,0,40.3,13.7,45,7L393.2,139.3L393.2,139.3z"/>
	<path class="st0" d="M428.1,170.7c0-4.7-2.9-7.8-6.9-7.8c-9.2,0-15.8,14.5-16.5,26.5c-0.7,12.7,3.8,23.8,17.1,23.8
		c5.5,0,12.8-1.9,18.4-8.5l0.7,0.4c-7.5,12.4-20.2,21.3-34,21.3s-24.7-9.6-24.7-25.6c0-20.4,17.4-38.8,40.1-38.8
		c9.3,0,22.9,2.3,22.9,13.4c0,8.8-10.3,20.4-39.7,12.7l0.1-0.5C421.8,188.4,428.1,179.2,428.1,170.7L428.1,170.7z"/>
	<path class="st0" d="M457.5,170.1c0.4-2.4-1.5-4.2-4.9-3.1l-0.4-0.4c4.2-2,12.5-4.7,18.3-4.7c6.8,0,9.6,2.5,7.9,10.6l-6.6,27
		l0.5,0.1c8-30.6,20-37.8,30.7-37.8c14.9,0,14,12.3,12.5,20.6l-2.9,17c-1.8,10.3-2.9,23.7,2.4,25.7l-0.4,0.4c-2.9,0.6-5.9,1-8.7,1
		c-9.9,0-18.2-4.3-15.8-19.4l4.8-29.6c0.8-5.6,0.8-9.1-2-9.1c-6.7,0-14.9,13.7-19.4,31.5c-2,8.2-5.4,23.2-1.3,25.2l-0.4,0.4
		c-3.8,0.6-7.2,1-10,1c-9.4,0-13.7-4.1-11.1-18.8L457.5,170.1L457.5,170.1z"/>
	<path class="st0" d="M98.4,73.1c0-4.7-2.9-7.8-6.9-7.8c-9.2,0-15.8,14.5-16.5,26.5c-0.7,12.7,3.8,23.8,17.1,23.8
		c5.5,0,12.8-1.9,18.4-8.5l0.7,0.4c-7.5,12.4-20.2,21.3-34,21.3s-24.7-9.6-24.7-25.6c0-20.4,17.4-38.8,40.1-38.8
		c9.3,0,22.9,2.3,22.9,13.4c0,8.8-10.3,20.4-39.7,12.7l0.1-0.5C92,90.8,98.4,81.6,98.4,73.1L98.4,73.1z"/>
	<path class="st0" d="M142.4,102.5c-1.3,8.4-4.3,23.7-0.2,25.7l-0.4,0.4c-8.6,1.3-25.1,0.8-22-18.4l7.8-48.4
		c2.3-13.9,14.8-22.8,30.5-26.7c-22.6,0.7-38,21.2-59.2,21.2c-10,0-19.4-4.2-19.4-15.4c0-6.8,4.8-13.3,13.3-13.3
		c6.2,0,13.9,5.3,11,14c-4.9-2-9.8,0.7-9.8,5.9c0,4.2,3.2,7.4,7.5,7.4c17,0,35-20.5,57.6-20.7l0.2,1.1c-5.4,2.3-7.9,10.8-8.7,16
		L142.4,102.5L142.4,102.5z"/>
	<path class="st0" d="M196.6,73.1c0-4.7-2.9-7.8-6.9-7.8c-9.2,0-15.8,14.5-16.5,26.5c-0.7,12.7,3.8,23.8,17.1,23.8
		c5.5,0,12.8-1.9,18.4-8.5l0.7,0.4c-7.5,12.4-20.2,21.3-34.1,21.3s-24.7-9.6-24.7-25.6c0-20.4,17.4-38.8,40.1-38.8
		c9.3,0,22.9,2.3,22.9,13.4c0,8.8-10.3,20.4-39.7,12.7l0.1-0.5C190.2,90.8,196.6,81.6,196.6,73.1L196.6,73.1z"/>
	<path class="st0" d="M240.8,109.7c-1.6,10.2-1.6,14.7,3.6,14.7c10.8,0,31.2-20.1,31.2-35.4c0-5.1-2.6-8.6-7.3-8.6
		c-3.6,0-6.9,1.9-8.4,5.3c-6.1-0.4-9.1-4.1-9.1-9.1c0-8.1,6.2-13.1,12.9-13.1c7.3,0,14.7,5.7,14.7,18.6c0,24.8-23.8,46.7-45.3,46.7
		c-10.9,0-15.9-5.7-14-17.6l6.2-38.7c0.4-2.4-1.6-4.2-4.9-3.1l-0.4-0.4c4.2-2,12.6-4.7,18.3-4.7c6.8,0,9.2,2.5,7.9,10.6L240.8,109.7
		L240.8,109.7z"/>
	<path class="st0" d="M328.9,73.1c0-4.7-2.9-7.8-6.9-7.8c-9.2,0-15.8,14.5-16.5,26.5c-0.7,12.7,3.8,23.8,17.1,23.8
		c5.5,0,12.8-1.9,18.4-8.5l0.7,0.4c-7.5,12.4-20.2,21.3-34,21.3s-24.7-9.6-24.7-25.6c0-20.4,17.5-38.8,40.1-38.8
		c9.3,0,22.9,2.3,22.9,13.4c0,8.8-10.3,20.4-39.7,12.7l0.1-0.5C322.5,90.8,328.9,81.6,328.9,73.1L328.9,73.1z"/>
	<path class="st0" d="M357.1,72.5c0.4-2.4-1.5-4.2-4.9-3.1l-0.4-0.4c4.2-2,12.5-4.7,18.3-4.7c6.8,0,9.6,2.5,7.9,10.6l-6.6,27
		l0.5,0.1c8-30.6,20-37.8,30.7-37.8c14.9,0,14,12.3,12.5,20.6l-2.9,17c-1.8,10.3-2.9,23.7,2.4,25.7l-0.4,0.4c-2.9,0.6-5.9,1-8.7,1
		c-9.9,0-18.2-4.3-15.8-19.4l4.8-29.6c0.8-5.6,0.8-9.1-2-9.1c-6.7,0-14.9,13.7-19.4,31.5c-2,8.2-6.7,19.1-2.6,21.1l-0.4,0.4
		c-3.8,0.6-8.6-0.8-11.3-1.6c-9.3-2.8-10.9-11.5-8.4-21.2L357.1,72.5L357.1,72.5z"/>
	<path class="st0" d="M453.3,35.1c-22.6,0.7-38,21.2-59.1,21.2c-10,0-19.4-4.2-19.4-15.4c0-6.8,4.8-13.3,13.3-13.3
		c6.2,0,13.9,5.3,11,14c-4.9-2-9.8,0.7-9.8,5.9c0,4.2,3.2,7.4,7.5,7.4c17,0,35-20.5,57.6-20.7l0.2,1.1"/>
	<path class="st0" d="M514,127.1c-2.6,16.4-14.9,27.7-37.6,27.7c-9.9,0-23.7-2.1-23.7-13c0-6.7,5.4-11.6,12.2-11.6
		c4.9,0,10.3,3.5,9.6,9.9c-4.4,0.5-6.7,3.6-6.7,6.7c0,3.5,2.6,6.9,9.2,6.9c9.3,0,12.2-6.9,14.3-18l8.6-44.6l-0.5-0.1
		c-8,30.6-15.9,37.8-28.6,37.8c-16.5,0-16-12.3-14.7-20.6l5.9-35.7c0.4-2.4-1.5-4.2-4.9-3.1l-0.4-0.4c4.2-2,12.5-4.7,18.3-4.7
		c6.8,0,9.2,2.5,7.9,10.6l-6.2,38.2c-1,5.6,0.1,9.1,3.8,9.1c7.3,0,13.1-13.7,17.6-31.6c2-8.2,5.4-23.7,1.3-25.7l0.4-0.4
		c16.3-1.2,24.1-1,21.1,18.4L514,127.1L514,127.1z"/>
</g>
<path class="st0" d="M427.8,62.8h-5.7l0.2-1.3c18.2,0,28-9.4,31.2-27.4h1.3l-4,27.4h8.8l-0.2,1.3h-8.7l-6.3,38.2
	c-2.8,17.2-2.9,24.2,3.9,26.4v0.5c-4.5,0.6-7.6,0.9-10.6,0.9c-10.7,0-19.4-4.3-16.9-20.3L427.8,62.8L427.8,62.8z"/>
</svg>
