<?xml version="1.0" encoding="UTF-8"?><svg id="a" xmlns="http://www.w3.org/2000/svg" viewBox="0 0 554.74 267.08"><defs><style>.b{fill:#d9a5b3;}</style></defs><g><path class="b" d="M180.14,213.88c0-5.97,4.54-11.47,11.11-11.47,4.66,0,9.32,2.87,8.6,8.72-3.46,1.19-5.62,4.42-5.62,7.88,0,3.82,2.51,6.33,11.11,6.33,5.5,0,18.28-1.19,18.28-9.08,0-11.83-37.28-11.23-37.28-31.31,0-16.49,18.4-22.94,33.34-22.94,9.92,0,22.58,2.27,22.58,11.35,0,5.38-4.06,10.28-9.92,10.28-4.06,0-7.89-2.75-7.29-8.01,2.63-.96,4.9-3.46,4.9-6.45,0-4.06-4.66-6.09-11.71-6.09-5.38,0-13.5,2.27-13.5,9.2,0,11.95,36.68,9.56,36.68,29.63,0,17.33-20.67,24.5-36.8,24.5-10.87,0-24.49-2.27-24.49-12.55Z"/><path class="b" d="M295.02,170.74c0-4.66-2.87-7.77-6.93-7.77-9.2,0-15.77,14.46-16.49,26.53-.72,12.67,3.82,23.78,17.09,23.78,5.5,0,12.78-1.91,18.4-8.48l.72,.36c-7.53,12.43-20.19,21.27-34.05,21.27s-24.73-9.56-24.73-25.57c0-20.43,17.44-38.83,40.15-38.83,9.32,0,22.94,2.27,22.94,13.38,0,8.84-10.28,20.43-39.67,12.67l.12-.48c16.13,.84,22.46-8.36,22.46-16.85Z"/><path class="b" d="M318.12,208.86l6.21-38.71c.36-2.39-1.55-4.18-4.9-3.11l-.36-.36c4.18-2.03,12.55-4.66,18.28-4.66,6.81,0,9.2,2.51,7.89,10.64l-5.5,34.65c-1.55,10.16-1.55,13.02,2.15,13.02,6.5,0,20.33-15.78,31.58-35.16,5.48-9.44,10.34-19.74,13.44-29.48,2.47-7.78,3.8-11.21,4.7-16.58,.33-1.99,2.61-3.59,1.78,.16-3.03,13.66-8.57,28.79-15.77,42.18-13.23,24.59-32.12,44.97-45.52,44.97-10.87,0-15.89-5.74-13.98-17.57Z"/><path class="b" d="M393.18,139.26h-.12c-3.7,8.72-12.19,14.82-21.99,14.82-11.35,0-22.34-4.06-34.65-4.06-5.26,0-10.63,1.32-12.55,7.05l-.84-.12c4.42-13.98,10.87-29.87,26.29-29.87,12.67,0,40.27,13.74,45.05,7.05l-1.19,5.14Z"/><path class="b" d="M428.14,170.74c0-4.66-2.87-7.77-6.93-7.77-9.2,0-15.77,14.46-16.49,26.53-.72,12.67,3.82,23.78,17.09,23.78,5.5,0,12.78-1.91,18.4-8.48l.72,.36c-7.53,12.43-20.19,21.27-34.05,21.27s-24.73-9.56-24.73-25.57c0-20.43,17.44-38.83,40.15-38.83,9.32,0,22.94,2.27,22.94,13.38,0,8.84-10.28,20.43-39.67,12.67l.12-.48c16.13,.84,22.46-8.36,22.46-16.85Z"/><path class="b" d="M457.5,170.09c.36-2.39-1.55-4.18-4.9-3.11l-.36-.36c4.18-2.03,12.55-4.66,18.28-4.66,6.81,0,9.56,2.51,7.89,10.64l-6.57,27,.48,.12c8-30.59,19.95-37.76,30.71-37.76,14.94,0,13.98,12.31,12.55,20.55l-2.87,16.97c-1.79,10.28-2.87,23.66,2.39,25.69l-.36,.36c-2.87,.6-5.86,.96-8.72,.96-9.92,0-18.16-4.3-15.77-19.36l4.78-29.63c.84-5.62,.84-9.08-2.03-9.08-6.69,0-14.94,13.74-19.36,31.54-2.03,8.25-5.38,23.18-1.31,25.21l-.36,.36c-3.82,.6-7.17,.96-10.04,.96-9.44,0-13.74-4.06-11.11-18.76l6.69-37.64Z"/><path class="b" d="M98.36,73.11c0-4.66-2.87-7.77-6.93-7.77-9.2,0-15.77,14.46-16.49,26.53-.72,12.67,3.82,23.78,17.09,23.78,5.5,0,12.78-1.91,18.4-8.48l.72,.36c-7.53,12.43-20.19,21.27-34.05,21.27s-24.73-9.56-24.73-25.57c0-20.43,17.44-38.83,40.15-38.83,9.32,0,22.94,2.27,22.94,13.38,0,8.84-10.28,20.43-39.67,12.67l.12-.48c16.13,.84,22.46-8.36,22.46-16.85Z"/><path class="b" d="M142.38,102.5c-1.32,8.36-4.3,23.66-.24,25.69l-.36,.36c-8.6,1.31-25.09,.84-21.99-18.4l7.77-48.39c2.27-13.86,14.82-22.82,30.47-26.65-22.58,.72-38,21.15-59.15,21.15-10.04,0-19.36-4.18-19.36-15.41,0-6.81,4.78-13.26,13.26-13.26,6.21,0,13.86,5.26,10.99,13.98-4.9-2.03-9.8,.72-9.8,5.86,0,4.18,3.23,7.41,7.53,7.41,16.97,0,35.01-20.55,57.59-20.67l.24,1.08c-5.38,2.27-7.89,10.75-8.72,16.01l-8.24,51.26Z"/><path class="b" d="M196.58,73.11c0-4.66-2.87-7.77-6.93-7.77-9.2,0-15.77,14.46-16.49,26.53-.72,12.67,3.82,23.78,17.09,23.78,5.5,0,12.78-1.91,18.4-8.48l.72,.36c-7.53,12.43-20.19,21.27-34.05,21.27s-24.74-9.56-24.74-25.57c0-20.43,17.45-38.83,40.15-38.83,9.32,0,22.94,2.27,22.94,13.38,0,8.84-10.28,20.43-39.67,12.67l.12-.48c16.13,.84,22.46-8.36,22.46-16.85Z"/><path class="b" d="M240.84,109.67c-1.55,10.16-1.55,14.7,3.58,14.7,10.75,0,31.19-20.07,31.19-35.37,0-5.14-2.63-8.6-7.29-8.6-3.58,0-6.93,1.91-8.36,5.26-6.09-.36-9.08-4.06-9.08-9.08,0-8.13,6.21-13.14,12.91-13.14,7.29,0,14.7,5.74,14.7,18.64,0,24.85-23.78,46.72-45.29,46.72-10.87,0-15.89-5.74-13.98-17.57l6.21-38.71c.36-2.39-1.55-4.18-4.9-3.11l-.36-.36c4.18-2.03,12.55-4.66,18.28-4.66,6.81,0,9.2,2.51,7.89,10.64l-5.5,34.65Z"/><path class="b" d="M328.87,73.11c0-4.66-2.87-7.77-6.93-7.77-9.2,0-15.77,14.46-16.49,26.53-.72,12.67,3.82,23.78,17.09,23.78,5.5,0,12.78-1.91,18.4-8.48l.72,.36c-7.53,12.43-20.19,21.27-34.05,21.27s-24.74-9.56-24.74-25.57c0-20.43,17.45-38.83,40.15-38.83,9.32,0,22.94,2.27,22.94,13.38,0,8.84-10.28,20.43-39.67,12.67l.12-.48c16.13,.84,22.46-8.36,22.46-16.85Z"/><path class="b" d="M357.07,72.51c.36-2.39-1.55-4.18-4.9-3.11l-.36-.36c4.18-2.03,12.55-4.66,18.28-4.66,6.81,0,9.56,2.51,7.89,10.64l-6.57,27,.48,.12c8-30.59,19.95-37.76,30.71-37.76,14.94,0,13.98,12.31,12.55,20.55l-2.87,16.97c-1.79,10.28-2.87,23.66,2.39,25.69l-.36,.36c-2.87,.6-5.86,.96-8.72,.96-9.92,0-18.16-4.3-15.77-19.36l4.78-29.63c.84-5.62,.84-9.08-2.03-9.08-6.69,0-14.94,13.74-19.36,31.54-2.03,8.25-6.69,19.11-2.63,21.14l-.36,.36c-3.82,.6-8.56-.8-11.3-1.63-9.28-2.82-10.85-11.5-8.44-21.21l6.6-28.53Z"/><path class="b" d="M453.33,35.11c-22.58,.72-38,21.15-59.15,21.15-10.04,0-19.36-4.18-19.36-15.41,0-6.81,4.78-13.26,13.26-13.26,6.21,0,13.86,5.26,10.99,13.98-4.9-2.03-9.8,.72-9.8,5.86,0,4.18,3.23,7.41,7.53,7.41,16.97,0,35.01-20.55,57.59-20.67l.24,1.08"/><path class="b" d="M514.01,127.12c-2.63,16.37-14.94,27.72-37.64,27.72-9.92,0-23.66-2.15-23.66-13.02,0-6.69,5.38-11.59,12.19-11.59,4.9,0,10.28,3.46,9.56,9.92-4.42,.48-6.69,3.58-6.69,6.69,0,3.46,2.63,6.93,9.2,6.93,9.32,0,12.19-6.93,14.34-18.04l8.6-44.57-.48-.12c-8.01,30.59-15.89,37.76-28.56,37.76-16.49,0-16.01-12.31-14.7-20.55l5.86-35.73c.36-2.39-1.55-4.18-4.9-3.11l-.36-.36c4.18-2.03,12.55-4.66,18.28-4.66,6.81,0,9.2,2.51,7.89,10.64l-6.21,38.24c-.96,5.62,.12,9.08,3.82,9.08,7.29,0,13.14-13.74,17.57-31.55,2.03-8.24,5.38-23.66,1.31-25.69l.36-.36c16.25-1.19,24.14-.96,21.15,18.4l-6.93,43.97Z"/></g><path class="b" d="M427.8,62.83h-5.68l.25-1.26c18.18,0,28.03-9.44,31.18-27.37h1.26l-4.04,27.37h8.84l-.25,1.26h-8.71l-6.31,38.25c-2.78,17.17-2.9,24.24,3.91,26.39v.5c-4.54,.63-7.58,.88-10.61,.88-10.73,0-19.44-4.29-16.92-20.33l7.07-45.7Z"/></svg>